<svg width="1444" height="973" viewBox="0 0 1444 973" fill="none" xmlns="http://www.w3.org/2000/svg">
<g opacity="0.9">
<path d="M-124 421.536C-82.4165 394.285 86.0871 250.512 388.863 250.512C767.333 250.512 978.867 585.511 1549.59 308.773" stroke="#FDD5BA" stroke-width="0.8"/>
<path d="M-124 121.023C-82.4165 93.7724 86.0871 -50 388.863 -50C767.333 -50 978.867 284.999 1549.59 8.26069" stroke="#FDD5BA" stroke-width="0.8"/>
<path d="M-124 411.842C-82.4165 384.591 86.0871 240.818 388.863 240.818C767.333 240.818 978.867 575.817 1549.59 299.079" stroke="#FDD5BA" stroke-width="0.8"/>
<path d="M-124 402.148C-82.4165 374.897 86.0871 231.125 388.863 231.125C767.333 231.125 978.867 566.124 1549.59 289.385" stroke="#FDD5BA" stroke-width="0.8"/>
<path d="M-124 392.454C-82.4165 365.203 86.0871 221.431 388.863 221.431C767.333 221.431 978.867 556.43 1549.59 279.691" stroke="#FDD5BA" stroke-width="0.8"/>
<path d="M-124 382.76C-82.4165 355.509 86.0871 211.736 388.863 211.736C767.333 211.736 978.867 546.735 1549.59 269.997" stroke="#FDD5BA" stroke-width="0.8"/>
<path d="M-124 373.066C-82.4165 345.815 86.0871 202.042 388.863 202.042C767.333 202.042 978.867 537.041 1549.59 260.303" stroke="#FDD5BA" stroke-width="0.8"/>
<path d="M-124 363.372C-82.4165 336.121 86.0871 192.349 388.863 192.349C767.333 192.349 978.867 527.348 1549.59 250.609" stroke="#FDD5BA" stroke-width="0.8"/>
<path d="M-124 353.678C-82.4165 326.427 86.0871 182.655 388.863 182.655C767.333 182.655 978.867 517.654 1549.59 240.915" stroke="#FDD5BA" stroke-width="0.8"/>
<path d="M-124 343.984C-82.4165 316.733 86.0871 172.961 388.863 172.961C767.333 172.961 978.867 507.96 1549.59 231.222" stroke="#FDD5BA" stroke-width="0.8"/>
<path d="M-124 334.29C-82.4165 307.039 86.0871 163.267 388.863 163.267C767.333 163.267 978.867 498.266 1549.59 221.527" stroke="#FDD5BA" stroke-width="0.8"/>
<path d="M-124 324.596C-82.4165 297.345 86.0871 153.573 388.863 153.573C767.333 153.573 978.867 488.572 1549.59 211.833" stroke="#FDD5BA" stroke-width="0.8"/>
<path d="M-124 314.902C-82.4165 287.651 86.0871 143.879 388.863 143.879C767.333 143.879 978.867 478.878 1549.59 202.14" stroke="#FDD5BA" stroke-width="0.8"/>
<path d="M-124 305.208C-82.4165 277.957 86.0871 134.185 388.863 134.185C767.333 134.185 978.867 469.184 1549.59 192.446" stroke="#FDD5BA" stroke-width="0.8"/>
<path d="M-124 295.514C-82.4165 268.263 86.0871 124.491 388.863 124.491C767.333 124.491 978.867 459.49 1549.59 182.751" stroke="#FDD5BA" stroke-width="0.8"/>
<path d="M-124 285.82C-82.4165 258.569 86.0871 114.797 388.863 114.797C767.333 114.797 978.867 449.796 1549.59 173.058" stroke="#FDD5BA" stroke-width="0.8"/>
<path d="M-124 276.126C-82.4165 248.875 86.0871 105.103 388.863 105.103C767.333 105.103 978.867 440.102 1549.59 163.364" stroke="#FDD5BA" stroke-width="0.8"/>
<path d="M-124 266.433C-82.4165 239.182 86.0871 95.4092 388.863 95.4092C767.333 95.4092 978.867 430.408 1549.59 153.67" stroke="#FDD5BA" stroke-width="0.8"/>
<path d="M-124 256.739C-82.4165 229.488 86.0871 85.7153 388.863 85.7153C767.333 85.7153 978.867 420.714 1549.59 143.976" stroke="#FDD5BA" stroke-width="0.8"/>
<path d="M-124 247.045C-82.4165 219.794 86.0871 76.0215 388.863 76.0215C767.333 76.0215 978.867 411.02 1549.59 134.282" stroke="#FDD5BA" stroke-width="0.8"/>
<path d="M-124 237.351C-82.4165 210.1 86.0871 66.3276 388.863 66.3276C767.333 66.3276 978.867 401.327 1549.59 124.588" stroke="#FDD5BA" stroke-width="0.8"/>
<path d="M-124 227.657C-82.4165 200.406 86.0871 56.6333 388.863 56.6333C767.333 56.6333 978.867 391.632 1549.59 114.894" stroke="#FDD5BA" stroke-width="0.8"/>
<path d="M-124 217.963C-82.4165 190.712 86.0871 46.9395 388.863 46.9395C767.333 46.9395 978.867 381.938 1549.59 105.2" stroke="#FDD5BA" stroke-width="0.8"/>
<path d="M-124 208.269C-82.4165 181.018 86.0871 37.2456 388.863 37.2456C767.333 37.2456 978.867 372.245 1549.59 95.5063" stroke="#FDD5BA" stroke-width="0.8"/>
<path d="M-124 198.575C-82.4165 171.324 86.0871 27.5518 388.863 27.5518C767.333 27.5518 978.867 362.551 1549.59 85.8124" stroke="#FDD5BA" stroke-width="0.8"/>
<path d="M-124 188.881C-82.4165 161.63 86.0871 17.8574 388.863 17.8574C767.333 17.8574 978.867 352.856 1549.59 76.1181" stroke="#FDD5BA" stroke-width="0.8"/>
<path d="M-124 179.187C-82.4165 151.936 86.0871 8.16357 388.863 8.16357C767.333 8.16357 978.867 343.163 1549.59 66.4243" stroke="#FDD5BA" stroke-width="0.8"/>
<path d="M-124 169.493C-82.4165 142.242 86.0871 -1.53027 388.863 -1.53027C767.333 -1.53027 978.867 333.469 1549.59 56.7304" stroke="#FDD5BA" stroke-width="0.8"/>
<path d="M-124 159.799C-82.4165 132.548 86.0871 -11.2241 388.863 -11.2241C767.333 -11.2241 978.867 323.775 1549.59 47.0366" stroke="#FDD5BA" stroke-width="0.8"/>
<path d="M-124 150.105C-82.4165 122.854 86.0871 -20.9185 388.863 -20.9185C767.333 -20.9185 978.867 314.081 1549.59 37.3422" stroke="#FDD5BA" stroke-width="0.8"/>
<path d="M-124 140.411C-82.4165 113.16 86.0871 -30.6123 388.863 -30.6123C767.333 -30.6123 978.867 304.387 1549.59 27.6484" stroke="#FDD5BA" stroke-width="0.8"/>
<path d="M-124 130.717C-82.4165 103.466 86.0871 -40.3062 388.863 -40.3062C767.333 -40.3062 978.867 294.693 1549.59 17.9545" stroke="#FDD5BA" stroke-width="0.8"/>
</g>
<g filter="url(#filter0_f_262_4728)">
<path d="M-137 436L115.864 436C115.864 436 621.593 1040.27 -137 1177L-137 436Z" fill="#FFFBF9"/>
</g>
<g filter="url(#filter1_f_262_4728)">
<path d="M1389.76 1184.45L-219.143 1184.45C-219.143 1184.45 961.019 231.015 1226.13 636.602C1476.96 1020.35 1389.76 1184.45 1389.76 1184.45Z" fill="#5280FF" fill-opacity="0.06"/>
</g>
<g filter="url(#filter2_f_262_4728)">
<path d="M-36 482.26L-36 72C-36 72 221.361 372.933 111.881 440.534C8.29678 504.494 -36 482.26 -36 482.26Z" fill="#5280FF" fill-opacity="0.08"/>
</g>
<g filter="url(#filter3_f_262_4728)">
<path d="M516.815 385.76L-109 18.2086C-109 18.2086 331.107 226.257 576.345 -144.095L516.815 385.76Z" fill="#FFF1F8"/>
</g>
<g filter="url(#filter4_f_262_4728)">
<path d="M566.638 667L1076 1184C1076 1184 704.736 869.133 372 1163.39L566.638 667Z" fill="#FFE4D7" fill-opacity="0.08"/>
</g>
<rect width="1444" height="968" fill="url(#paint0_linear_262_4728)"/>
<g opacity="0.9">
<path d="M-201 1047.9C-158.326 1019.93 14.5949 872.391 325.309 872.391C713.701 872.391 930.78 1216.17 1516.46 932.179" stroke="#FFE7D8" stroke-width="0.8"/>
<path d="M-201 739.507C-158.326 711.542 14.5949 564 325.309 564C713.701 564 930.78 907.782 1516.46 623.788" stroke="#FFE7D8" stroke-width="0.8"/>
<path d="M-201 1037.95C-158.326 1009.98 14.5949 862.443 325.309 862.443C713.701 862.443 930.78 1206.22 1516.46 922.231" stroke="#FFE7D8" stroke-width="0.8"/>
<path d="M-201 1028C-158.326 1000.04 14.5949 852.495 325.309 852.495C713.701 852.495 930.78 1196.28 1516.46 912.283" stroke="#FFE7D8" stroke-width="0.8"/>
<path d="M-201 1018.05C-158.326 990.088 14.5949 842.546 325.309 842.546C713.701 842.546 930.78 1186.33 1516.46 902.334" stroke="#FFE7D8" stroke-width="0.8"/>
<path d="M-201 1008.11C-158.326 980.14 14.5949 832.598 325.309 832.598C713.701 832.598 930.78 1176.38 1516.46 892.386" stroke="#FFE7D8" stroke-width="0.8"/>
<path d="M-201 998.157C-158.326 970.192 14.5949 822.65 325.309 822.65C713.701 822.65 930.78 1166.43 1516.46 882.438" stroke="#FFE7D8" stroke-width="0.8"/>
<path d="M-201 988.209C-158.326 960.244 14.5949 812.702 325.309 812.702C713.701 812.702 930.78 1156.48 1516.46 872.49" stroke="#FFE7D8" stroke-width="0.8"/>
<path d="M-201 978.261C-158.326 950.295 14.5949 802.754 325.309 802.754C713.701 802.754 930.78 1146.54 1516.46 862.542" stroke="#FFE7D8" stroke-width="0.8"/>
<path d="M-201 968.313C-158.326 940.348 14.5949 792.806 325.309 792.806C713.701 792.806 930.78 1136.59 1516.46 852.594" stroke="#FFE7D8" stroke-width="0.8"/>
<path d="M-201 958.365C-158.326 930.399 14.5949 782.858 325.309 782.858C713.701 782.858 930.78 1126.64 1516.46 842.646" stroke="#FFE7D8" stroke-width="0.8"/>
<path d="M-201 948.417C-158.326 920.451 14.5949 772.91 325.309 772.91C713.701 772.91 930.78 1116.69 1516.46 832.698" stroke="#FFE7D8" stroke-width="0.8"/>
<path d="M-201 938.469C-158.326 910.503 14.5949 762.962 325.309 762.962C713.701 762.962 930.78 1106.74 1516.46 822.75" stroke="#FFE7D8" stroke-width="0.8"/>
<path d="M-201 928.521C-158.326 900.555 14.5949 753.014 325.309 753.014C713.701 753.014 930.78 1096.8 1516.46 812.802" stroke="#FFE7D8" stroke-width="0.8"/>
<path d="M-201 918.572C-158.326 890.607 14.5949 743.065 325.309 743.065C713.701 743.065 930.78 1086.85 1516.46 802.854" stroke="#FFE7D8" stroke-width="0.8"/>
<path d="M-201 908.625C-158.326 880.659 14.5949 733.118 325.309 733.118C713.701 733.118 930.78 1076.9 1516.46 792.906" stroke="#FFE7D8" stroke-width="0.8"/>
<path d="M-201 898.676C-158.326 870.711 14.5949 723.169 325.309 723.169C713.701 723.169 930.78 1066.95 1516.46 782.958" stroke="#FFE7D8" stroke-width="0.8"/>
<path d="M-201 888.728C-158.326 860.763 14.5949 713.221 325.309 713.221C713.701 713.221 930.78 1057 1516.46 773.009" stroke="#FFE7D8" stroke-width="0.8"/>
<path d="M-201 878.78C-158.326 850.815 14.5949 703.273 325.309 703.273C713.701 703.273 930.78 1047.05 1516.46 763.061" stroke="#FFE7D8" stroke-width="0.8"/>
<path d="M-201 868.832C-158.326 840.867 14.5949 693.325 325.309 693.325C713.701 693.325 930.78 1037.11 1516.46 753.113" stroke="#FFE7D8" stroke-width="0.8"/>
<path d="M-201 858.884C-158.326 830.919 14.5949 683.377 325.309 683.377C713.701 683.377 930.78 1027.16 1516.46 743.165" stroke="#FFE7D8" stroke-width="0.8"/>
<path d="M-201 848.936C-158.326 820.97 14.5949 673.429 325.309 673.429C713.701 673.429 930.78 1017.21 1516.46 733.217" stroke="#FFE7D8" stroke-width="0.8"/>
<path d="M-201 838.987C-158.326 811.022 14.5949 663.48 325.309 663.48C713.701 663.48 930.78 1007.26 1516.46 723.269" stroke="#FFE7D8" stroke-width="0.8"/>
<path d="M-201 829.04C-158.326 801.074 14.5949 653.533 325.309 653.533C713.701 653.533 930.78 997.314 1516.46 713.321" stroke="#FFE7D8" stroke-width="0.8"/>
<path d="M-201 819.092C-158.326 791.127 14.5949 643.585 325.309 643.585C713.701 643.585 930.78 987.366 1516.46 703.373" stroke="#FFE7D8" stroke-width="0.8"/>
<path d="M-201 809.144C-158.326 781.178 14.5949 633.637 325.309 633.637C713.701 633.637 930.78 977.418 1516.46 693.425" stroke="#FFE7D8" stroke-width="0.8"/>
<path d="M-201 799.195C-158.326 771.23 14.5949 623.688 325.309 623.688C713.701 623.688 930.78 967.47 1516.46 683.477" stroke="#FFE7D8" stroke-width="0.8"/>
<path d="M-201 789.248C-158.326 761.282 14.5949 613.741 325.309 613.741C713.701 613.741 930.78 957.522 1516.46 673.529" stroke="#FFE7D8" stroke-width="0.8"/>
<path d="M-201 779.299C-158.326 751.334 14.5949 603.792 325.309 603.792C713.701 603.792 930.78 947.574 1516.46 663.581" stroke="#FFE7D8" stroke-width="0.8"/>
<path d="M-201 769.351C-158.326 741.386 14.5949 593.844 325.309 593.844C713.701 593.844 930.78 937.626 1516.46 653.632" stroke="#FFE7D8" stroke-width="0.8"/>
<path d="M-201 759.403C-158.326 731.438 14.5949 583.896 325.309 583.896C713.701 583.896 930.78 927.678 1516.46 643.684" stroke="#FFE7D8" stroke-width="0.8"/>
<path d="M-201 749.455C-158.326 721.49 14.5949 573.948 325.309 573.948C713.701 573.948 930.78 917.73 1516.46 633.736" stroke="#FFE7D8" stroke-width="0.8"/>
</g>
<defs>
<filter id="filter0_f_262_4728" x="-307" y="266" width="758" height="1081" filterUnits="userSpaceOnUse" color-interpolation-filters="sRGB">
<feFlood flood-opacity="0" result="BackgroundImageFix"/>
<feBlend mode="normal" in="SourceGraphic" in2="BackgroundImageFix" result="shape"/>
<feGaussianBlur stdDeviation="85" result="effect1_foregroundBlur_262_4728"/>
</filter>
<filter id="filter1_f_262_4728" x="-389.143" y="366.136" width="1963.57" height="988.317" filterUnits="userSpaceOnUse" color-interpolation-filters="sRGB">
<feFlood flood-opacity="0" result="BackgroundImageFix"/>
<feBlend mode="normal" in="SourceGraphic" in2="BackgroundImageFix" result="shape"/>
<feGaussianBlur stdDeviation="85" result="effect1_foregroundBlur_262_4728"/>
</filter>
<filter id="filter2_f_262_4728" x="-206" y="-98" width="515" height="754" filterUnits="userSpaceOnUse" color-interpolation-filters="sRGB">
<feFlood flood-opacity="0" result="BackgroundImageFix"/>
<feBlend mode="normal" in="SourceGraphic" in2="BackgroundImageFix" result="shape"/>
<feGaussianBlur stdDeviation="85" result="effect1_foregroundBlur_262_4728"/>
</filter>
<filter id="filter3_f_262_4728" x="-279" y="-314.095" width="1025.35" height="869.854" filterUnits="userSpaceOnUse" color-interpolation-filters="sRGB">
<feFlood flood-opacity="0" result="BackgroundImageFix"/>
<feBlend mode="normal" in="SourceGraphic" in2="BackgroundImageFix" result="shape"/>
<feGaussianBlur stdDeviation="85" result="effect1_foregroundBlur_262_4728"/>
</filter>
<filter id="filter4_f_262_4728" x="202" y="497" width="1044" height="857" filterUnits="userSpaceOnUse" color-interpolation-filters="sRGB">
<feFlood flood-opacity="0" result="BackgroundImageFix"/>
<feBlend mode="normal" in="SourceGraphic" in2="BackgroundImageFix" result="shape"/>
<feGaussianBlur stdDeviation="85" result="effect1_foregroundBlur_262_4728"/>
</filter>
<linearGradient id="paint0_linear_262_4728" x1="479.015" y1="0" x2="479.015" y2="968" gradientUnits="userSpaceOnUse">
<stop stop-color="#FFF6F0" stop-opacity="0.38"/>
<stop offset="0.574389" stop-color="#FBE8E9" stop-opacity="0.31"/>
<stop offset="1" stop-color="#FCFCFF" stop-opacity="0.57"/>
</linearGradient>
</defs>
</svg>
