<svg width="13" height="12" viewBox="0 0 13 12" fill="none" xmlns="http://www.w3.org/2000/svg">
<path d="M8.34494 10.4912C8.34483 10.5895 8.32536 10.6869 8.28763 10.7777C8.2499 10.8685 8.19466 10.951 8.12505 11.0204C8.05545 11.0899 7.97284 11.145 7.88195 11.1825C7.79106 11.22 7.69367 11.2393 7.59534 11.2392H1.60174C1.50341 11.2393 1.40601 11.22 1.31512 11.1825C1.22424 11.145 1.14163 11.0899 1.07202 11.0204C1.00242 10.951 0.947172 10.8685 0.909444 10.7777C0.871716 10.6869 0.852244 10.5895 0.852139 10.4912V4.5032C0.852139 4.0896 1.18814 3.7552 1.60174 3.7552H2.35054V3.0064H1.60174C1.40494 3.00619 1.21002 3.04477 1.02814 3.11994C0.846259 3.19511 0.680976 3.30539 0.541742 3.44447C0.402507 3.58356 0.292052 3.74872 0.21669 3.93052C0.141329 4.11233 0.102539 4.3072 0.102539 4.504V10.492C0.102434 10.6887 0.141131 10.8835 0.216415 11.0653C0.291699 11.247 0.402091 11.4122 0.541272 11.5512C0.680454 11.6902 0.84569 11.8004 1.02752 11.8755C1.20936 11.9506 1.40421 11.9891 1.60094 11.9888H7.59374C7.7904 11.9891 7.98519 11.9507 8.16697 11.8756C8.34875 11.8006 8.51395 11.6904 8.65312 11.5515C8.79229 11.4125 8.9027 11.2475 8.97803 11.0659C9.05336 10.8842 9.09214 10.6895 9.09214 10.4928V9.744H8.34334V10.492L8.34494 10.4912ZM10.5921 0.0112002H4.59854C4.4018 0.0110951 4.20698 0.0497541 4.02519 0.124968C3.8434 0.200183 3.67821 0.310479 3.53906 0.449554C3.39991 0.58863 3.28952 0.753759 3.21421 0.935509C3.1389 1.11726 3.10014 1.31207 3.10014 1.5088V7.496C3.10014 8.3224 3.77054 8.992 4.59854 8.992H10.5929C11.4209 8.992 12.0905 8.3216 12.0905 7.496V1.5088C12.0904 1.31213 12.0516 1.11741 11.9762 0.935754C11.9009 0.754097 11.7905 0.589062 11.6513 0.450071C11.5122 0.311081 11.347 0.200856 11.1653 0.125692C10.9836 0.0505276 10.7888 0.0110951 10.5921 0.0112002ZM11.3417 7.4968C11.3417 7.5951 11.3224 7.69243 11.2847 7.78323C11.2471 7.87404 11.1919 7.95653 11.1224 8.026C11.0528 8.09547 10.9703 8.15055 10.8794 8.18809C10.7886 8.22564 10.6912 8.24491 10.5929 8.2448H4.59854C4.40008 8.2448 4.20974 8.16602 4.06934 8.02577C3.92894 7.88551 3.84995 7.69526 3.84974 7.4968V1.5088C3.84974 1.096 4.18574 0.7608 4.59854 0.7608H10.5929C11.0065 0.7608 11.3417 1.096 11.3417 1.5088V7.4968Z" fill="#FF761C"/>
</svg>
