<svg width="20" height="20" viewBox="0 0 20 20" fill="none" xmlns="http://www.w3.org/2000/svg">
<circle cx="10" cy="10" r="10" fill="#FF761C"/>
<g clip-path="url(#clip0_277_1682)">
<path d="M12.2424 14.4912C12.2423 14.5896 12.2228 14.6869 12.1851 14.7777C12.1474 14.8685 12.0921 14.951 12.0225 15.0205C11.9529 15.0899 11.8703 15.145 11.7794 15.1825C11.6885 15.2201 11.5911 15.2393 11.4928 15.2392H5.4992C5.40087 15.2393 5.30347 15.2201 5.21259 15.1825C5.1217 15.145 5.03909 15.0899 4.96948 15.0205C4.89988 14.951 4.84463 14.8685 4.80691 14.7777C4.76918 14.6869 4.74971 14.5896 4.7496 14.4912V8.50323C4.7496 8.08963 5.0856 7.75523 5.4992 7.75523H6.248V7.00643H5.4992C5.3024 7.00622 5.10748 7.0448 4.9256 7.11997C4.74372 7.19514 4.57844 7.30542 4.4392 7.4445C4.29997 7.58359 4.18951 7.74875 4.11415 7.93055C4.03879 8.11236 4 8.30723 4 8.50403V14.492C3.99989 14.6888 4.03859 14.8836 4.11388 15.0653C4.18916 15.2471 4.29955 15.4122 4.43873 15.5512C4.57791 15.6903 4.74315 15.8005 4.92498 15.8756C5.10682 15.9507 5.30167 15.9891 5.4984 15.9888H11.4912C11.6879 15.9891 11.8826 15.9507 12.0644 15.8756C12.2462 15.8006 12.4114 15.6905 12.5506 15.5515C12.6898 15.4126 12.8002 15.2475 12.8755 15.0659C12.9508 14.8842 12.9896 14.6895 12.9896 14.4928V13.744H12.2408V14.492L12.2424 14.4912ZM14.4896 4.01123H8.496C8.29926 4.01113 8.10444 4.04978 7.92265 4.125C7.74086 4.20021 7.57567 4.31051 7.43652 4.44958C7.29737 4.58866 7.18699 4.75379 7.11167 4.93554C7.03636 5.11729 6.9976 5.3121 6.9976 5.50883V11.496C6.9976 12.3224 7.668 12.992 8.496 12.992H14.4904C15.3184 12.992 15.988 12.3216 15.988 11.496V5.50883C15.9879 5.31216 15.9491 5.11744 15.8737 4.93578C15.7983 4.75413 15.6879 4.58909 15.5488 4.4501C15.4097 4.31111 15.2445 4.20089 15.0628 4.12572C14.881 4.05056 14.6863 4.01193 14.4896 4.01203V4.01123ZM15.2392 11.4968C15.2392 11.5951 15.2198 11.6925 15.1822 11.7833C15.1445 11.8741 15.0894 11.9566 15.0198 12.026C14.9503 12.0955 14.8677 12.1506 14.7769 12.1881C14.686 12.2257 14.5887 12.2449 14.4904 12.2448H8.496C8.29754 12.2448 8.1072 12.166 7.9668 12.0258C7.8264 11.8855 7.74741 11.6953 7.7472 11.4968V5.50883C7.7472 5.09603 8.0832 4.76083 8.496 4.76083H14.4904C14.904 4.76083 15.2392 5.09603 15.2392 5.50883V11.4968Z" fill="white"/>
</g>
<defs>
<clipPath id="clip0_277_1682">
<rect width="12" height="12" fill="white" transform="translate(4 4)"/>
</clipPath>
</defs>
</svg>
