<svg width="20" height="20" viewBox="0 0 20 20" fill="none" xmlns="http://www.w3.org/2000/svg">
<path d="M3.95833 5.00008H3.125C2.95924 5.00008 2.80027 4.93423 2.68306 4.81702C2.56585 4.69981 2.5 4.54084 2.5 4.37508C2.5 4.20932 2.56585 4.05035 2.68306 3.93314C2.80027 3.81593 2.95924 3.75008 3.125 3.75008H16.875C17.0408 3.75008 17.1997 3.81593 17.3169 3.93314C17.4342 4.05035 17.5 4.20932 17.5 4.37508C17.5 4.54084 17.4342 4.69981 17.3169 4.81702C17.1997 4.93423 17.0408 5.00008 16.875 5.00008H5.20833V16.0417C5.20833 16.1785 5.23528 16.314 5.28763 16.4404C5.33997 16.5668 5.4167 16.6816 5.51343 16.7783C5.61016 16.875 5.72499 16.9518 5.85137 17.0041C5.97775 17.0565 6.11321 17.0834 6.25 17.0834H13.75C13.8868 17.0834 14.0222 17.0565 14.1486 17.0041C14.275 16.9518 14.3898 16.875 14.4866 16.7783C14.5833 16.6816 14.66 16.5668 14.7124 16.4404C14.7647 16.314 14.7917 16.1785 14.7917 16.0417V6.87508C14.7917 6.70932 14.8575 6.55035 14.9747 6.43314C15.0919 6.31593 15.2509 6.25008 15.4167 6.25008C15.5824 6.25008 15.7414 6.31593 15.8586 6.43314C15.9758 6.55035 16.0417 6.70932 16.0417 6.87508V16.0417C16.0417 17.3074 15.0156 18.3334 13.75 18.3334H6.25C4.98438 18.3334 3.95833 17.3074 3.95833 16.0417V5.00008ZM8.33333 2.91675C8.16757 2.91675 8.0086 2.8509 7.89139 2.73369C7.77418 2.61648 7.70833 2.45751 7.70833 2.29175C7.70833 2.12599 7.77418 1.96702 7.89139 1.84981C8.0086 1.7326 8.16757 1.66675 8.33333 1.66675H11.6667C11.8324 1.66675 11.9914 1.7326 12.1086 1.84981C12.2258 1.96702 12.2917 2.12599 12.2917 2.29175C12.2917 2.45751 12.2258 2.61648 12.1086 2.73369C11.9914 2.8509 11.8324 2.91675 11.6667 2.91675H8.33333ZM7.70833 8.54175C7.70833 8.37599 7.77418 8.21701 7.89139 8.0998C8.0086 7.98259 8.16757 7.91675 8.33333 7.91675C8.49909 7.91675 8.65806 7.98259 8.77528 8.0998C8.89249 8.21701 8.95833 8.37599 8.95833 8.54175V13.5417C8.95833 13.7075 8.89249 13.8665 8.77528 13.9837C8.65806 14.1009 8.49909 14.1667 8.33333 14.1667C8.16757 14.1667 8.0086 14.1009 7.89139 13.9837C7.77418 13.8665 7.70833 13.7075 7.70833 13.5417V8.54175ZM11.0417 8.54175C11.0417 8.37599 11.1075 8.21701 11.2247 8.0998C11.3419 7.98259 11.5009 7.91675 11.6667 7.91675C11.8324 7.91675 11.9914 7.98259 12.1086 8.0998C12.2258 8.21701 12.2917 8.37599 12.2917 8.54175V13.5417C12.2917 13.7075 12.2258 13.8665 12.1086 13.9837C11.9914 14.1009 11.8324 14.1667 11.6667 14.1667C11.5009 14.1667 11.3419 14.1009 11.2247 13.9837C11.1075 13.8665 11.0417 13.7075 11.0417 13.5417V8.54175Z" fill="#0E0E11" fill-opacity="0.8"/>
</svg>
