<svg width="16" height="16" viewBox="0 0 16 16" fill="none" xmlns="http://www.w3.org/2000/svg">
<path d="M14.4069 7.41466C14.0569 7.41466 13.8236 7.64802 13.8236 7.99802C13.8236 9.573 13.2402 11.0313 12.1319 12.1396C11.0236 13.248 9.5653 13.8313 7.99022 13.8313C6.41532 13.8313 4.95697 13.248 3.84861 12.1396C2.74035 11.0313 2.15699 9.573 2.15699 7.99802C2.15699 6.42303 2.74035 4.96467 3.84861 3.85641C4.95697 2.74805 6.41532 2.16469 7.99022 2.16469C8.80694 2.16469 9.62358 2.33969 10.3819 2.68969C10.6736 2.80641 11.0236 2.68969 11.1402 2.39805C11.2569 2.10633 11.1402 1.75641 10.8486 1.63969C9.97357 1.23142 8.98193 0.998047 7.99021 0.998047C6.12358 0.998047 4.3736 1.69805 3.03196 3.03967C1.69033 4.38139 0.990234 6.1313 0.990234 7.998C0.990234 9.86463 1.69031 11.6146 3.03196 12.9563C4.37358 14.298 6.12358 14.998 7.99021 14.998C9.85693 14.998 11.6069 14.298 12.9486 12.9563C14.2902 11.6146 14.9903 9.86463 14.9903 7.998C14.9903 7.64802 14.7569 7.41466 14.4069 7.41466ZM5.77369 6.71466C5.54033 6.4813 5.19024 6.4813 4.95697 6.71466C4.72369 6.94802 4.72369 7.29802 4.95697 7.5313L7.58196 10.1563C7.6986 10.273 7.81532 10.3314 7.99022 10.3314C8.16522 10.3314 8.28194 10.273 8.39858 10.1563L13.6486 4.90641C13.8819 4.67305 13.8819 4.32305 13.6486 4.08969C13.4152 3.85641 13.0653 3.85641 12.8319 4.08969L7.99024 8.93128L5.77369 6.71466Z" fill="#00B272"/>
</svg>
